{"title":"XY.2014.WEB-DL.XviD.MP3-RARBG","uid":11738757,"size":1103717848,"categoryP":"video","categoryS":"hd___movies","magnet":"?xt=urn:btih:aad2e034f24973ad86b141dbebace85d47ad42c0&amp;dn=XY.2014.WEB-DL.XviD.MP3-RARBG&amp;tr=udp%3A%2F%2Ftracker.openbittorrent.com%3A80&amp;tr=udp%3A%2F%2Fopen.demonii.com%3A1337&amp;tr=udp%3A%2F%2Ftracker.coppersurfer.tk%3A6969&amp;tr=udp%3A%2F%2Fexodus.desync.com%3A6969","seeders":5,"leechers":1,"uploader":"makintos13","files":5,"time":1425666582,"description":" &lt;a href=&quot;http://imgsleek.com/img-54f9e418a8545.html&quot; rel=&quot;nofollow&quot; target=&quot;_NEW&quot;&gt;http://imgsleek.com/img-54f9e418a8545.html&lt;/a&gt;\n &lt;a href=&quot;\nhttp://imgsleek.com/img-54f9e4348de14.html&quot; rel=&quot;nofollow&quot; target=&quot;_NEW&quot;&gt;\nhttp://imgsleek.com/img-54f9e4348de14.html&lt;/a&gt;\n\n.....................................................\n\nFormat                                   : AVI\nFormat/Info                              : Audio Video Interleave\nFile size                                : 1.03 GiB\nDuration                                 : 1h 23mn\nOverall bit rate                         : 1 763 Kbps\nMovie name                               : RARBG.COM - XY.2014.WEB-DL.XviD.MP3-RARBG\nWriting library                          : VirtualDub build 35491/release\nComment                                  : RARBG.COM - XY.2014.WEB-DL.XviD.MP3-RARBG\n\nVideo\nID                                       : 0\nFormat                                   : MPEG-4 Visual\nFormat profile                           : Simple@L5\nFormat settings, BVOP                    : No\nFormat settings, QPel                    : No\nFormat settings, GMC                     : No warppoints\nFormat settings, Matrix                  : Default (H.263)\nCodec ID                                 : XVID\nCodec ID/Hint                            : XviD\nDuration                                 : 1h 23mn\nBit rate                                 : 1 558 Kbps\nWidth                                    : 720 pixels\nHeight                                   : 304 pixels\nDisplay aspect ratio                     : 2.40:1\nFrame rate                               : 24.000 fps\nColor space                              : YUV\nChroma subsampling                       : 4:2:0\nBit depth                                : 8 bits\nScan type                                : Progressive\nCompression mode                         : Lossy\nBits/(Pixel*Frame)                       : 0.297\nStream size                              : 929 MiB (88%)\nWriting library                          : Lavc56.20.100\n\nAudio\nID                                       : 1\nFormat                                   : MPEG Audio\nFormat version                           : Version 1\nFormat profile                           : Layer 3\nMode                                     : Joint stereo\nCodec ID                                 : 55\nCodec ID/Hint                            : MP3\nDuration                                 : 1h 23mn\nBit rate mode                            : Constant\nBit rate                                 : 192 Kbps\nChannel(s)                               : 2 channels\nSampling rate                            : 48.0 KHz\nCompression mode                         : Lossy\nStream size                              : 114 MiB (11%)\nAlignment                                : Aligned on interleaves\nInterleave, duration                     : 24 ms (0.58 video frame)\nInterleave, preload duration             : 504 ms\nWriting library                          : LAME3.99.5\nNotes:\nGreetz to all!","torrent":{"xt":"urn:btih:aad2e034f24973ad86b141dbebace85d47ad42c0","amp;dn":"XY.2014.WEB-DL.XviD.MP3-RARBG","amp;tr":["udp%3A%2F%2Ftracker.openbittorrent.com%3A80","udp%3A%2F%2Fopen.demonii.com%3A1337","udp%3A%2F%2Ftracker.coppersurfer.tk%3A6969","udp%3A%2F%2Fexodus.desync.com%3A6969"],"infoHash":"aad2e034f24973ad86b141dbebace85d47ad42c0","infoHashBuffer":{"type":"Buffer","data":[170,210,224,52,242,73,115,173,134,177,65,219,235,172,232,93,71,173,66,192]},"announce":[],"urlList":[]}}